<svg width="129" height="65" viewBox="0 0 129 65" fill="none" xmlns="http://www.w3.org/2000/svg">
<g filter="url(#filter0_d_3120_258941)">
<path d="M32.4233 7.64709L12.3529 41.2141H24.3408C28.2487 31.3687 32.1165 27.548 40.5882 22.3275L32.4233 7.64709Z" fill="#FE5C01"/>
<path d="M53.3717 26.2863C38.6929 28.3662 32.7562 33.384 25.3305 47.6471C28.9353 33.8212 33.1949 28.603 44.0521 24.0595C47.9968 24.51 50.0182 25.0238 53.3717 26.2863Z" fill="#FE5C01"/>
<path d="M37.5367 34.7811L40.4233 40.5543H50.815L45.1243 30.7399C42.2301 31.7791 40.5668 32.6701 37.5367 34.7811Z" fill="#FE5C01"/>
<path d="M67.7596 40.505H63.9796L63.8066 37.9109H57.7784L56.4937 40.505H52.8619L61.5584 23.7791H66.4748L67.7596 40.505ZM63.6831 35.1438L63.1643 27.1391L59.1125 35.1438H63.6831Z" fill="white"/>
<path d="M79.6948 40.505H70.8748C69.4913 40.505 68.923 40.0356 68.923 39.0226C68.923 38.7509 68.9725 38.4297 69.0466 38.0591L70.6525 30.4497C70.9983 28.7697 71.7395 28.0038 73.5183 28.0038H82.3383L81.696 31.0426H74.6548C74.1113 31.0426 73.963 31.1662 73.8395 31.7097L72.7772 36.7003C72.7525 36.8238 72.7278 36.9226 72.7278 37.0215C72.7278 37.2932 72.876 37.392 73.296 37.392H80.3372L79.6948 40.505Z" fill="white"/>
<path d="M92.5911 40.505H83.7711C82.3876 40.505 81.8193 40.0356 81.8193 39.0226C81.8193 38.7509 81.8687 38.4297 81.9429 38.0591L83.5487 30.4497C83.8946 28.7697 84.6358 28.0038 86.4146 28.0038H95.2346L94.5923 31.0426H87.5511C87.0076 31.0426 86.8593 31.1662 86.7358 31.7097L85.6734 36.7003C85.6487 36.8238 85.624 36.9226 85.624 37.0215C85.624 37.2932 85.7723 37.392 86.1923 37.392H93.2334L92.5911 40.505Z" fill="white"/>
<path d="M106.698 40.505H96.5685C95.1603 40.505 94.5921 40.0356 94.5921 39.0226C94.5921 38.7509 94.6415 38.4297 94.7156 38.0591L96.3215 30.4497C96.6674 28.7697 97.4085 28.0038 99.2121 28.0038H107.661C108.921 28.0038 109.416 28.4732 109.416 29.4368C109.416 29.7085 109.391 30.005 109.317 30.3509L108.279 35.2673H99.9532L100.373 33.192H105.413L105.784 31.512C105.809 31.3885 105.809 31.2897 105.809 31.1909C105.809 30.9438 105.685 30.845 105.29 30.845H100.324C99.7556 30.845 99.6321 30.9932 99.5085 31.5368L98.3474 36.9226C98.3227 37.0709 98.298 37.1944 98.298 37.2932C98.298 37.5897 98.4462 37.6638 98.8662 37.6638H107.291L106.698 40.505Z" fill="white"/>
<path d="M112.681 40.505H109.222L112.977 22.7662H116.436L112.681 40.505Z" fill="white"/>
</g>
<defs>
<filter id="filter0_d_3120_258941" x="-3.60012e-05" y="3.55244e-05" width="128.789" height="64.7059" filterUnits="userSpaceOnUse" color-interpolation-filters="sRGB">
<feFlood flood-opacity="0" result="BackgroundImageFix"/>
<feColorMatrix in="SourceAlpha" type="matrix" values="0 0 0 0 0 0 0 0 0 0 0 0 0 0 0 0 0 0 127 0" result="hardAlpha"/>
<feMorphology radius="1.76471" operator="erode" in="SourceAlpha" result="effect1_dropShadow_3120_258941"/>
<feOffset dy="4.70588"/>
<feGaussianBlur stdDeviation="7.05882"/>
<feColorMatrix type="matrix" values="0 0 0 0 0.0627451 0 0 0 0 0.0941176 0 0 0 0 0.156863 0 0 0 0.1 0"/>
<feBlend mode="normal" in2="BackgroundImageFix" result="effect1_dropShadow_3120_258941"/>
<feBlend mode="normal" in="SourceGraphic" in2="effect1_dropShadow_3120_258941" result="shape"/>
</filter>
</defs>
</svg>
